# xmcd
#
# Track frame offsets:
#	150
#	14967
#	27243
#	44484
#	63439
#	86356
#	98668
#	109652
#	121980
#	132157
#	153858
#	169216
#
# Disc length: 2448 seconds
#
# Revision: 1
# Processed by: cddbd v1.5.1PL0 Copyright (c) Steve Scherf et al.
# Submitted via: audiograbber 1.81.03
#
DISCID=98098e0c
DTITLE=Jude Taylor - Zydeco Bayou!
DYEAR=1997
DGENRE=Pop-Folk
TTITLE0=Slick Daddy
TTITLE1=Let's do the Zydeco
TTITLE2=Zydeco Macarena
TTITLE3=I know a man
TTITLE4=Roadrunner
TTITLE5=Southern City Woman
TTITLE6=I'm Walkin'
TTITLE7=Burnin' Flames Special
TTITLE8=Bayou Man
TTITLE9=Behind closed doors
TTITLE10=Hassle in my castle
TTITLE11=Shake it, don't break it
EXTD=Jude Taylor and His Burning Flames
EXTT0=
EXTT1=
EXTT2=
EXTT3=
EXTT4=
EXTT5=
EXTT6=
EXTT7=
EXTT8=
EXTT9=
EXTT10=
EXTT11=
PLAYORDER=
